<svg width="250" height="125" viewBox="0 0 250 125" fill="none" xmlns="http://www.w3.org/2000/svg">
<mask id="mask0_438_519" style="mask-type:alpha" maskUnits="userSpaceOnUse" x="0" y="0" width="250" height="125">
<rect width="250" height="125" fill="#D9D9D9"/>
</mask>
<g mask="url(#mask0_438_519)">
<circle cx="125.502" cy="125.502" r="55.2209" fill="#90CC31"/>
<circle cx="125" cy="125" r="113" stroke="#3A3A3A" stroke-opacity="0.2" stroke-width="24"/>
<path d="M110.442 95.3846C110.442 95.1291 110.543 94.8677 110.739 94.6716C111.131 94.2795 111.773 94.2795 112.165 94.6716L125.591 108.092L138.816 94.8677C139.208 94.4756 139.849 94.4756 140.241 94.8677C140.634 95.2598 140.634 95.9014 140.241 96.2935L126.304 110.231C125.912 110.623 125.27 110.623 124.878 110.231L110.739 96.0974C110.543 95.9014 110.442 95.64 110.442 95.3846Z" fill="#212121"/>
</g>
</svg>
