<svg width="440" height="130" viewBox="0 0 440 130" fill="none" xmlns="http://www.w3.org/2000/svg">
<g style="mix-blend-mode:exclusion">
<path d="M60.4159 130C47.9519 130 37.1901 127.284 28.1306 121.853C19.1288 116.422 12.1755 108.824 7.27068 99.06C2.42356 89.2956 0 77.9422 0 65C0 52.0578 2.42356 40.7044 7.27068 30.94C12.1755 21.1756 19.1288 13.5778 28.1306 8.14666C37.1901 2.71555 47.9519 0 60.4159 0C74.7264 0 86.7288 3.55333 96.423 10.66C106.175 17.7667 113.042 27.3867 117.023 39.52L93.307 46.1067C90.9989 38.5378 87.1039 32.6733 81.622 28.5133C76.1402 24.2956 69.0714 22.1867 60.4159 22.1867C52.5105 22.1867 45.9034 23.9489 40.5946 27.4733C35.3436 30.9978 31.3909 35.9667 28.7365 42.38C26.0821 48.7933 24.7549 56.3333 24.7549 65C24.7549 73.6667 26.0821 81.2067 28.7365 87.62C31.3909 94.0333 35.3436 99.0022 40.5946 102.527C45.9034 106.051 52.5105 107.813 60.4159 107.813C69.0714 107.813 76.1402 105.704 81.622 101.487C87.1039 97.2689 90.9989 91.4044 93.307 83.8933L117.023 90.48C113.042 102.613 106.175 112.233 96.423 119.34C86.7288 126.447 74.7264 130 60.4159 130Z" fill="white"/>
</g>
<path d="M256.159 66.9349V4.53491H282.472C283.078 4.53491 283.886 4.5638 284.896 4.62158C285.934 4.65047 286.858 4.73713 287.665 4.88158C291.387 5.45936 294.431 6.68713 296.797 8.56491C299.192 10.4427 300.952 12.8116 302.077 15.6716C303.202 18.5027 303.765 21.666 303.765 25.1616C303.765 30.3905 302.466 34.8682 299.87 38.5949C297.273 42.2927 293.205 44.5749 287.665 45.4416L282.472 45.7882H267.931V66.9349H256.159ZM291.301 66.9349L279.01 41.5416L291.128 39.2016L304.63 66.9349H291.301ZM267.931 34.7816H281.953C282.559 34.7816 283.222 34.7527 283.944 34.6949C284.665 34.6371 285.328 34.5216 285.934 34.3482C287.521 33.9149 288.747 33.1927 289.613 32.1816C290.479 31.1416 291.07 30.0005 291.387 28.7582C291.734 27.4871 291.907 26.2882 291.907 25.1616C291.907 24.0349 291.734 22.8505 291.387 21.6082C291.07 20.3371 290.479 19.196 289.613 18.1849C288.747 17.1449 287.521 16.4082 285.934 15.9749C285.328 15.8016 284.665 15.686 283.944 15.6282C283.222 15.5705 282.559 15.5416 281.953 15.5416H267.931V34.7816Z" fill="white"/>
<path d="M205.104 66.9349V4.53491H245.786V15.5416H216.876V28.8882H240.592V39.8949H216.876V55.9283H245.786V66.9349H205.104Z" fill="white"/>
<path d="M149.993 66.9349V4.53491H174.921C179.364 4.53491 182.956 5.43047 185.697 7.22158C188.438 8.9838 190.443 11.2082 191.713 13.8949C192.982 16.5816 193.617 19.2971 193.617 22.0416C193.617 25.5371 192.824 28.4405 191.237 30.7516C189.679 33.0627 187.529 34.6082 184.788 35.3882V33.2216C188.683 34.0305 191.597 35.836 193.53 38.6382C195.492 41.4405 196.473 44.5749 196.473 48.0416C196.473 51.7682 195.781 55.0471 194.396 57.8782C193.04 60.7094 190.963 62.9338 188.164 64.5516C185.365 66.1405 181.845 66.9349 177.604 66.9349H149.993ZM161.938 55.8416H176.392C177.979 55.8416 179.393 55.5094 180.634 54.8449C181.874 54.1516 182.841 53.1982 183.533 51.9849C184.255 50.7427 184.615 49.2838 184.615 47.6082C184.615 46.1349 184.312 44.8205 183.706 43.6649C183.1 42.5094 182.177 41.5994 180.937 40.9349C179.725 40.2416 178.21 39.8949 176.392 39.8949H161.938V55.8416ZM161.938 28.8882H174.748C176.075 28.8882 177.258 28.6571 178.297 28.1949C179.335 27.7327 180.158 27.0249 180.763 26.0716C181.369 25.0894 181.672 23.8327 181.672 22.3016C181.672 20.3949 181.081 18.7916 179.898 17.4916C178.715 16.1916 176.998 15.5416 174.748 15.5416H161.938V28.8882Z" fill="white"/>
<path d="M110.707 66.9349V41.5416L89.4141 4.53491H103.176L116.679 28.0216L130.182 4.53491H143.944L122.651 41.5416V66.9349H110.707Z" fill="white"/>
<path d="M401.396 127.4V64.9999H413.168V116.393H440V127.4H401.396Z" fill="white"/>
<path d="M361.684 128.7C355.452 128.7 350.071 127.342 345.541 124.627C341.04 121.911 337.564 118.112 335.111 113.23C332.688 108.348 331.476 102.671 331.476 96.2001C331.476 89.729 332.688 84.0523 335.111 79.1701C337.564 74.2879 341.04 70.489 345.541 67.7734C350.071 65.0579 355.452 63.7001 361.684 63.7001C367.916 63.7001 373.282 65.0579 377.783 67.7734C382.313 70.489 385.79 74.2879 388.213 79.1701C390.665 84.0523 391.892 89.729 391.892 96.2001C391.892 102.671 390.665 108.348 388.213 113.23C385.79 118.112 382.313 121.911 377.783 124.627C373.282 127.342 367.916 128.7 361.684 128.7ZM361.684 117.607C365.636 117.665 368.926 116.812 371.551 115.05C374.177 113.288 376.139 110.789 377.437 107.553C378.764 104.318 379.428 100.533 379.428 96.2001C379.428 91.8667 378.764 88.1112 377.437 84.9334C376.139 81.7556 374.177 79.2856 371.551 77.5234C368.926 75.7612 365.636 74.8512 361.684 74.7934C357.731 74.7356 354.442 75.5878 351.816 77.3501C349.191 79.1123 347.215 81.6112 345.887 84.8467C344.589 88.0823 343.94 91.8667 343.94 96.2001C343.94 100.533 344.589 104.289 345.887 107.467C347.215 110.645 349.191 113.115 351.816 114.877C354.442 116.639 357.731 117.549 361.684 117.607Z" fill="white"/>
<path d="M276.952 127.4V64.9999H303.265C303.871 64.9999 304.679 65.0288 305.689 65.0866C306.727 65.1155 307.651 65.2022 308.458 65.3466C312.18 65.9244 315.224 67.1522 317.59 69.0299C319.985 70.9077 321.745 73.2766 322.87 76.1366C323.995 78.9677 324.558 82.131 324.558 85.6266C324.558 90.8555 323.259 95.3333 320.663 99.0599C318.066 102.758 313.998 105.04 308.458 105.907L303.265 106.253H288.724V127.4H276.952ZM312.094 127.4L299.803 102.007L311.921 99.6666L325.423 127.4H312.094ZM288.724 95.2466H302.746C303.352 95.2466 304.015 95.2177 304.737 95.1599C305.458 95.1022 306.121 94.9866 306.727 94.8133C308.314 94.3799 309.54 93.6577 310.406 92.6466C311.271 91.6066 311.863 90.4655 312.18 89.2233C312.527 87.9522 312.7 86.7533 312.7 85.6266C312.7 84.4999 312.527 83.3155 312.18 82.0733C311.863 80.8022 311.271 79.6611 310.406 78.6499C309.54 77.6099 308.314 76.8733 306.727 76.4399C306.121 76.2666 305.458 76.151 304.737 76.0933C304.015 76.0355 303.352 76.0066 302.746 76.0066H288.724V95.2466Z" fill="white"/>
<path d="M238.578 127.4V76.0066H218.93V64.9999H269.998V76.0066H250.349V127.4H238.578Z" fill="white"/>
<path d="M161.066 127.4V64.9999H173.01L200.102 106.6V64.9999H212.047V127.4H200.102L173.01 85.7999V127.4H161.066Z" fill="white"/>
<path d="M122.219 128.7C115.987 128.7 110.606 127.342 106.076 124.627C101.575 121.911 98.0987 118.112 95.6463 113.23C93.2228 108.348 92.011 102.671 92.011 96.2001C92.011 89.729 93.2228 84.0523 95.6463 79.1701C98.0987 74.2879 101.575 70.489 106.076 67.7734C110.606 65.0579 115.987 63.7001 122.219 63.7001C128.451 63.7001 133.817 65.0579 138.318 67.7734C142.848 70.489 146.325 74.2879 148.748 79.1701C151.201 84.0523 152.427 89.729 152.427 96.2001C152.427 102.671 151.201 108.348 148.748 113.23C146.325 118.112 142.848 121.911 138.318 124.627C133.817 127.342 128.451 128.7 122.219 128.7ZM122.219 117.607C126.172 117.665 129.461 116.812 132.086 115.05C134.712 113.288 136.674 110.789 137.972 107.553C139.299 104.318 139.963 100.533 139.963 96.2001C139.963 91.8667 139.299 88.1112 137.972 84.9334C136.674 81.7556 134.712 79.2856 132.086 77.5234C129.461 75.7612 126.172 74.8512 122.219 74.7934C118.266 74.7356 114.977 75.5878 112.352 77.3501C109.726 79.1123 107.75 81.6112 106.423 84.8467C105.124 88.0823 104.475 91.8667 104.475 96.2001C104.475 100.533 105.124 104.289 106.423 107.467C107.75 110.645 109.726 113.115 112.352 114.877C114.977 116.639 118.266 117.549 122.219 117.607Z" fill="white"/>
</svg>
